<?xml version="1.0" standalone="no"?>
<!DOCTYPE svg PUBLIC "-//W3C//DTD SVG 20010904//EN"
 "http://www.w3.org/TR/2001/REC-SVG-20010904/DTD/svg10.dtd">
<svg version="1.0" xmlns="http://www.w3.org/2000/svg"
 width="141.000000pt" height="135.000000pt" viewBox="0 0 141.000000 135.000000"
 preserveAspectRatio="xMidYMid meet">

<g transform="translate(0.000000,135.000000) scale(0.100000,-0.100000)"
fill="#000000" stroke="none">
<path d="M651 1264 c-26 -21 -31 -33 -31 -68 0 -41 26 -86 50 -86 6 0 10 -17
10 -39 l0 -38 -65 -16 c-36 -9 -85 -30 -109 -46 -43 -30 -44 -30 -61 -11 -14
16 -31 20 -76 20 -52 0 -60 3 -78 29 -17 23 -20 38 -15 73 5 38 3 48 -21 76
-22 27 -34 32 -70 32 -36 0 -48 -5 -69 -31 -14 -17 -26 -42 -26 -55 0 -63 56
-110 118 -98 23 4 31 -2 55 -36 27 -39 30 -40 86 -40 80 0 86 -10 50 -78 -16
-30 -32 -73 -35 -94 -6 -34 -10 -38 -36 -38 -21 0 -39 10 -62 35 -44 47 -94
49 -137 6 -40 -41 -40 -91 0 -132 43 -43 93 -41 137 6 23 25 41 35 63 35 28 0
31 -3 31 -32 0 -18 16 -64 35 -102 43 -83 38 -96 -41 -96 -50 0 -54 -2 -81
-39 -26 -36 -31 -39 -76 -37 -42 1 -52 -3 -73 -27 -26 -31 -32 -90 -11 -118
30 -39 96 -51 134 -24 28 20 46 75 35 106 -7 19 -4 31 16 56 21 29 30 33 72
33 32 0 55 6 73 20 l26 21 41 -26 c23 -14 70 -33 106 -42 l64 -16 0 -37 c0
-28 -5 -39 -24 -49 -53 -29 -61 -99 -15 -142 54 -50 126 -34 149 35 13 41 2
75 -34 104 -19 15 -26 29 -26 56 0 31 4 36 28 42 47 10 86 27 130 55 39 26 72
30 72 8 0 -5 26 -9 58 -9 53 0 58 -2 79 -33 17 -25 21 -41 16 -73 -4 -36 -1
-46 24 -74 40 -45 95 -45 135 -1 64 72 2 172 -95 154 -21 -4 -30 2 -53 36 -26
40 -28 41 -85 41 -32 0 -61 5 -64 10 -4 6 6 35 20 65 15 29 29 72 32 94 5 40
7 41 43 41 28 0 39 -5 49 -24 37 -69 146 -57 171 18 17 53 -13 105 -69 119
-31 8 -86 -15 -101 -42 -8 -16 -20 -21 -50 -21 -36 0 -40 2 -40 26 0 14 -14
55 -31 91 -37 77 -32 85 48 81 50 -3 52 -2 79 37 26 38 29 40 74 37 42 -3 49
-1 73 28 47 55 28 128 -38 150 -70 23 -136 -37 -121 -112 5 -24 1 -40 -16 -65
-21 -31 -27 -33 -79 -33 -39 0 -61 -5 -69 -15 -12 -14 -15 -14 -34 3 -38 33
-75 52 -128 66 -50 13 -53 15 -56 49 -3 29 1 37 18 42 24 7 60 60 60 87 0 31
-23 69 -51 84 -41 21 -74 17 -108 -12z m97 -36 c19 -19 14 -55 -10 -72 -12 -9
-26 -16 -30 -16 -13 0 -48 39 -48 54 0 37 61 61 88 34z m-537 -88 c22 -12 26
-59 7 -78 -7 -7 -21 -12 -33 -12 -29 0 -45 19 -45 52 0 39 34 57 71 38z m1027
-22 c21 -21 15 -67 -12 -79 -34 -16 -66 3 -66 39 0 33 16 52 45 52 12 0 26 -5
33 -12z m-426 -162 c172 -77 228 -282 120 -438 -77 -110 -240 -152 -358 -93
-166 82 -221 274 -123 426 73 114 235 162 361 105z m-584 -228 c29 -29 7 -78
-34 -78 -42 0 -63 59 -30 82 17 12 51 9 64 -4z m1006 -4 c32 -32 13 -74 -34
-74 -30 0 -50 16 -50 41 0 23 27 49 50 49 10 0 26 -7 34 -16z m-3 -394 c29
-16 26 -67 -5 -81 -34 -16 -66 3 -66 41 0 41 33 60 71 40z m-1010 -20 c26 -14
24 -55 -3 -74 -29 -20 -34 -20 -58 4 -24 24 -25 43 -4 64 18 19 38 20 65 6z
m510 -90 c37 -20 18 -80 -26 -80 -43 0 -63 58 -27 79 22 13 29 13 53 1z"/>
<path d="M692 908 c-19 -19 -14 -46 9 -59 18 -9 25 -7 43 10 16 17 18 25 10
39 -14 21 -45 27 -62 10z"/>
<path d="M656 807 c-45 -32 -66 -67 -66 -113 0 -40 27 -28 34 15 5 36 21 60
31 49 10 -10 -34 -170 -58 -210 -32 -55 -34 -78 -7 -78 21 0 75 83 86 133 l6
29 29 -28 c19 -18 30 -41 35 -70 3 -24 12 -51 19 -61 12 -16 15 -16 29 -3 12
12 13 25 5 64 -9 48 -16 63 -60 117 -16 20 -19 34 -14 58 l7 31 36 -30 c20
-16 42 -30 49 -30 23 0 14 30 -13 42 -14 7 -36 33 -49 59 -13 25 -31 49 -38
52 -8 3 -36 -9 -61 -26z"/>
</g>
</svg>
